name Walk8.mot
datacolumns 19
datarows 10
range 1.09000000 1.13500000
endheader

                time	   L_ground_force_vx	   L_ground_force_vy	   L_ground_force_vz	   L_ground_force_px	   L_ground_force_py	   L_ground_force_pz	   R_ground_force_vx	   R_ground_force_vy	   R_ground_force_vz	   R_ground_force_px	   R_ground_force_py	   R_ground_force_pz	   L_ground_torque_x	   L_ground_torque_y	   L_ground_torque_z	   R_ground_torque_x	   R_ground_torque_y	   R_ground_torque_z	
          1.09000000	          0.00000000	          0.00000000	         -0.00000000	          0.00000000	          0.00000000	          0.00000000	        -14.20186049	         44.05202635	         -0.33479330	         -0.14888752	          0.00000000	          0.18465134	          0.00000000	         -0.00000000	          0.00000000	          0.00000000	          0.12625610	          0.00000000	
          1.09500000	          0.00000000	          0.00000000	         -0.00000000	          0.00000000	          0.00000000	          0.00000000	        -34.19829121	        186.66899450	          6.48024344	         -0.26060595	          0.00000000	          0.31673720	          0.00000000	         -0.00000000	          0.00000000	          0.00000000	          0.23286339	          0.00000000	
          1.10000000	         -0.00000000	         -0.00000000	         -0.00000000	         -0.00000000	          0.00000000	         -0.00000000	        -41.77484060	        347.13137103	         23.32319042	         -0.27752707	          0.00000000	          0.33333084	          0.00000000	          0.00000000	          0.00000000	          0.00000000	          0.24321025	          0.00000000	
          1.10500000	         -0.00000000	         -0.00000000	          0.00000000	         -0.00000000	          0.00000000	         -0.00000000	        -40.36592278	        416.44823574	         41.75115890	         -0.26803480	          0.00000000	          0.32297345	          0.00000000	          0.00000000	          0.00000000	          0.00000000	          0.13703106	          0.00000000	
          1.11000000	         -0.00000000	         -0.00000000	          0.00000000	          0.00000000	          0.00000000	          0.00000000	        -43.32379536	        428.20879337	         51.76310649	         -0.26127899	          0.00000000	          0.31820739	          0.00000000	          0.00000000	          0.00000000	          0.00000000	         -0.09440240	          0.00000000	
          1.11500000	          0.00000000	          0.00000000	         -0.00000000	          0.00000000	          0.00000000	          0.00000000	        -55.03817963	        457.57169203	         52.33577744	         -0.25838961	          0.00000000	          0.31841602	          0.00000000	         -0.00000000	          0.00000000	          0.00000000	         -0.33564151	          0.00000000	
          1.12000000	          0.00000000	          0.00000000	         -0.00000000	          0.00000000	          0.00000000	          0.00000000	        -75.05426937	        498.68506775	         46.65682493	         -0.25607185	          0.00000000	          0.31979550	          0.00000000	         -0.00000000	          0.00000000	          0.00000000	         -0.43894553	          0.00000000	
          1.12500000	          0.00000000	          0.00000000	         -0.00000000	         -0.00000000	          0.00000000	         -0.00000000	        -97.76676156	        523.09070562	         37.15180661	         -0.25232463	          0.00000000	          0.32108688	          0.00000000	         -0.00000000	          0.00000000	          0.00000000	         -0.18715835	          0.00000000	
          1.13000000	         -0.00000000	         -0.00000000	          0.00000000	         -0.00000000	          0.00000000	         -0.00000000	       -114.31398205	        545.35919361	         22.88103872	         -0.24609783	          0.00000000	          0.32241912	          0.00000000	          0.00000000	          0.00000000	          0.00000000	          0.71171507	          0.00000000	
          1.13500000	         -0.00000000	         -0.00000000	          0.00000000	         -0.00000000	          0.00000000	         -0.00000000	       -123.23137403	        590.16056761	          2.97201022	         -0.23858645	          0.00000000	          0.32413466	          0.00000000	          0.00000000	          0.00000000	          0.00000000	          2.14150161	          0.00000000	
